<svg width="252" height="23" viewBox="0 0 252 23" fill="none" xmlns="http://www.w3.org/2000/svg">
<path d="M0.272266 15.94H16.0523V12.19H0.272266V15.94ZM6.15227 6.16V21.97H10.1723V6.16H6.15227ZM18.9098 5.02H28.9898L20.5598 22H25.1798L35.2898 0.999999H18.9098V5.02ZM46.717 6.07C46.717 6.99 46.897 7.8 47.257 8.5C47.637 9.18 48.137 9.75 48.757 10.21C49.397 10.67 50.117 11.02 50.917 11.26C51.717 11.5 52.547 11.62 53.407 11.62C54.267 11.62 55.097 11.5 55.897 11.26C56.697 11.02 57.407 10.67 58.027 10.21C58.667 9.75 59.167 9.18 59.527 8.5C59.907 7.8 60.097 6.99 60.097 6.07C60.097 4.95 59.787 3.98 59.167 3.16C58.567 2.34 57.757 1.71 56.737 1.27C55.737 0.809999 54.627 0.579999 53.407 0.579999C52.167 0.579999 51.037 0.809999 50.017 1.27C49.017 1.71 48.217 2.34 47.617 3.16C47.017 3.98 46.717 4.95 46.717 6.07ZM50.737 6.49C50.737 5.97 50.847 5.5 51.067 5.08C51.307 4.66 51.627 4.34 52.027 4.12C52.427 3.9 52.887 3.79 53.407 3.79C53.927 3.79 54.387 3.9 54.787 4.12C55.187 4.34 55.497 4.66 55.717 5.08C55.937 5.5 56.047 5.97 56.047 6.49C56.047 7.03 55.927 7.5 55.687 7.9C55.467 8.3 55.157 8.62 54.757 8.86C54.357 9.08 53.907 9.19 53.407 9.19C52.907 9.19 52.457 9.08 52.057 8.86C51.657 8.62 51.337 8.3 51.097 7.9C50.857 7.5 50.737 7.03 50.737 6.49ZM45.967 16.3C45.967 17.22 46.157 18.06 46.537 18.82C46.937 19.56 47.487 20.2 48.187 20.74C48.887 21.28 49.677 21.7 50.557 22C51.457 22.28 52.407 22.42 53.407 22.42C54.407 22.42 55.347 22.28 56.227 22C57.127 21.7 57.917 21.28 58.597 20.74C59.297 20.2 59.847 19.56 60.247 18.82C60.647 18.06 60.847 17.22 60.847 16.3C60.847 15.24 60.627 14.33 60.187 13.57C59.747 12.79 59.157 12.15 58.417 11.65C57.697 11.15 56.897 10.78 56.017 10.54C55.137 10.3 54.267 10.18 53.407 10.18C52.547 10.18 51.677 10.3 50.797 10.54C49.917 10.78 49.107 11.15 48.367 11.65C47.647 12.15 47.067 12.79 46.627 13.57C46.187 14.33 45.967 15.24 45.967 16.3ZM50.197 15.67C50.197 15.09 50.337 14.56 50.617 14.08C50.917 13.6 51.307 13.22 51.787 12.94C52.287 12.66 52.827 12.52 53.407 12.52C53.967 12.52 54.487 12.66 54.967 12.94C55.467 13.22 55.867 13.6 56.167 14.08C56.467 14.56 56.617 15.09 56.617 15.67C56.617 16.37 56.467 16.96 56.167 17.44C55.867 17.9 55.467 18.26 54.967 18.52C54.487 18.76 53.967 18.88 53.407 18.88C52.827 18.88 52.287 18.76 51.787 18.52C51.307 18.26 50.917 17.9 50.617 17.44C50.337 16.96 50.197 16.37 50.197 15.67ZM67.7938 11.5C67.7938 10.44 67.8938 9.48 68.0938 8.62C68.2938 7.74 68.5838 6.99 68.9638 6.37C69.3438 5.73 69.7938 5.24 70.3138 4.9C70.8338 4.56 71.4138 4.39 72.0538 4.39C72.7138 4.39 73.3038 4.56 73.8238 4.9C74.3438 5.24 74.7938 5.73 75.1738 6.37C75.5538 6.99 75.8438 7.74 76.0438 8.62C76.2438 9.48 76.3438 10.44 76.3438 11.5C76.3438 12.56 76.2438 13.53 76.0438 14.41C75.8438 15.27 75.5538 16.02 75.1738 16.66C74.7938 17.28 74.3438 17.76 73.8238 18.1C73.3038 18.44 72.7138 18.61 72.0538 18.61C71.4138 18.61 70.8338 18.44 70.3138 18.1C69.7938 17.76 69.3438 17.28 68.9638 16.66C68.5838 16.02 68.2938 15.27 68.0938 14.41C67.8938 13.53 67.7938 12.56 67.7938 11.5ZM63.6238 11.5C63.6238 13.72 63.9738 15.64 64.6738 17.26C65.3938 18.88 66.3838 20.14 67.6438 21.04C68.9238 21.92 70.3938 22.36 72.0538 22.36C73.7738 22.36 75.2638 21.92 76.5238 21.04C77.7838 20.14 78.7638 18.88 79.4638 17.26C80.1638 15.64 80.5138 13.72 80.5138 11.5C80.5138 9.28 80.1638 7.36 79.4638 5.74C78.7638 4.12 77.7838 2.87 76.5238 1.99C75.2638 1.09 73.7738 0.64 72.0538 0.64C70.3938 0.64 68.9238 1.09 67.6438 1.99C66.3838 2.87 65.3938 4.12 64.6738 5.74C63.9738 7.36 63.6238 9.28 63.6238 11.5ZM87.0712 11.5C87.0712 10.44 87.1712 9.48 87.3712 8.62C87.5712 7.74 87.8612 6.99 88.2412 6.37C88.6212 5.73 89.0712 5.24 89.5912 4.9C90.1112 4.56 90.6912 4.39 91.3312 4.39C91.9912 4.39 92.5812 4.56 93.1012 4.9C93.6212 5.24 94.0712 5.73 94.4512 6.37C94.8312 6.99 95.1212 7.74 95.3212 8.62C95.5212 9.48 95.6212 10.44 95.6212 11.5C95.6212 12.56 95.5212 13.53 95.3212 14.41C95.1212 15.27 94.8312 16.02 94.4512 16.66C94.0712 17.28 93.6212 17.76 93.1012 18.1C92.5812 18.44 91.9912 18.61 91.3312 18.61C90.6912 18.61 90.1112 18.44 89.5912 18.1C89.0712 17.76 88.6212 17.28 88.2412 16.66C87.8612 16.02 87.5712 15.27 87.3712 14.41C87.1712 13.53 87.0712 12.56 87.0712 11.5ZM82.9012 11.5C82.9012 13.72 83.2512 15.64 83.9512 17.26C84.6712 18.88 85.6612 20.14 86.9212 21.04C88.2012 21.92 89.6712 22.36 91.3312 22.36C93.0512 22.36 94.5412 21.92 95.8012 21.04C97.0612 20.14 98.0412 18.88 98.7412 17.26C99.4412 15.64 99.7912 13.72 99.7912 11.5C99.7912 9.28 99.4412 7.36 98.7412 5.74C98.0412 4.12 97.0612 2.87 95.8012 1.99C94.5412 1.09 93.0512 0.64 91.3312 0.64C89.6712 0.64 88.2012 1.09 86.9212 1.99C85.6612 2.87 84.6712 4.12 83.9512 5.74C83.2512 7.36 82.9012 9.28 82.9012 11.5ZM115.343 11.5C115.343 10.44 115.443 9.48 115.643 8.62C115.843 7.74 116.133 6.99 116.513 6.37C116.893 5.73 117.343 5.24 117.863 4.9C118.383 4.56 118.963 4.39 119.603 4.39C120.263 4.39 120.853 4.56 121.373 4.9C121.893 5.24 122.343 5.73 122.723 6.37C123.103 6.99 123.393 7.74 123.593 8.62C123.793 9.48 123.893 10.44 123.893 11.5C123.893 12.56 123.793 13.53 123.593 14.41C123.393 15.27 123.103 16.02 122.723 16.66C122.343 17.28 121.893 17.76 121.373 18.1C120.853 18.44 120.263 18.61 119.603 18.61C118.963 18.61 118.383 18.44 117.863 18.1C117.343 17.76 116.893 17.28 116.513 16.66C116.133 16.02 115.843 15.27 115.643 14.41C115.443 13.53 115.343 12.56 115.343 11.5ZM111.173 11.5C111.173 13.72 111.523 15.64 112.223 17.26C112.943 18.88 113.933 20.14 115.193 21.04C116.473 21.92 117.943 22.36 119.603 22.36C121.323 22.36 122.813 21.92 124.073 21.04C125.333 20.14 126.313 18.88 127.013 17.26C127.713 15.64 128.063 13.72 128.063 11.5C128.063 9.28 127.713 7.36 127.013 5.74C126.313 4.12 125.333 2.87 124.073 1.99C122.813 1.09 121.323 0.64 119.603 0.64C117.943 0.64 116.473 1.09 115.193 1.99C113.933 2.87 112.943 4.12 112.223 5.74C111.523 7.36 111.173 9.28 111.173 11.5ZM134.62 11.5C134.62 10.44 134.72 9.48 134.92 8.62C135.12 7.74 135.41 6.99 135.79 6.37C136.17 5.73 136.62 5.24 137.14 4.9C137.66 4.56 138.24 4.39 138.88 4.39C139.54 4.39 140.13 4.56 140.65 4.9C141.17 5.24 141.62 5.73 142 6.37C142.38 6.99 142.67 7.74 142.87 8.62C143.07 9.48 143.17 10.44 143.17 11.5C143.17 12.56 143.07 13.53 142.87 14.41C142.67 15.27 142.38 16.02 142 16.66C141.62 17.28 141.17 17.76 140.65 18.1C140.13 18.44 139.54 18.61 138.88 18.61C138.24 18.61 137.66 18.44 137.14 18.1C136.62 17.76 136.17 17.28 135.79 16.66C135.41 16.02 135.12 15.27 134.92 14.41C134.72 13.53 134.62 12.56 134.62 11.5ZM130.45 11.5C130.45 13.72 130.8 15.64 131.5 17.26C132.22 18.88 133.21 20.14 134.47 21.04C135.75 21.92 137.22 22.36 138.88 22.36C140.6 22.36 142.09 21.92 143.35 21.04C144.61 20.14 145.59 18.88 146.29 17.26C146.99 15.64 147.34 13.72 147.34 11.5C147.34 9.28 146.99 7.36 146.29 5.74C145.59 4.12 144.61 2.87 143.35 1.99C142.09 1.09 140.6 0.64 138.88 0.64C137.22 0.64 135.75 1.09 134.47 1.99C133.21 2.87 132.22 4.12 131.5 5.74C130.8 7.36 130.45 9.28 130.45 11.5ZM153.897 11.5C153.897 10.44 153.997 9.48 154.197 8.62C154.397 7.74 154.687 6.99 155.067 6.37C155.447 5.73 155.897 5.24 156.417 4.9C156.937 4.56 157.517 4.39 158.157 4.39C158.817 4.39 159.407 4.56 159.927 4.9C160.447 5.24 160.897 5.73 161.277 6.37C161.657 6.99 161.947 7.74 162.147 8.62C162.347 9.48 162.447 10.44 162.447 11.5C162.447 12.56 162.347 13.53 162.147 14.41C161.947 15.27 161.657 16.02 161.277 16.66C160.897 17.28 160.447 17.76 159.927 18.1C159.407 18.44 158.817 18.61 158.157 18.61C157.517 18.61 156.937 18.44 156.417 18.1C155.897 17.76 155.447 17.28 155.067 16.66C154.687 16.02 154.397 15.27 154.197 14.41C153.997 13.53 153.897 12.56 153.897 11.5ZM149.727 11.5C149.727 13.72 150.077 15.64 150.777 17.26C151.497 18.88 152.487 20.14 153.747 21.04C155.027 21.92 156.497 22.36 158.157 22.36C159.877 22.36 161.367 21.92 162.627 21.04C163.887 20.14 164.867 18.88 165.567 17.26C166.267 15.64 166.617 13.72 166.617 11.5C166.617 9.28 166.267 7.36 165.567 5.74C164.867 4.12 163.887 2.87 162.627 1.99C161.367 1.09 159.877 0.64 158.157 0.64C156.497 0.64 155.027 1.09 153.747 1.99C152.487 2.87 151.497 4.12 150.777 5.74C150.077 7.36 149.727 9.28 149.727 11.5ZM178.929 6.46L183.969 5.14V22H188.139V0.64L178.929 2.59V6.46ZM193.665 6.46L198.705 5.14V22H202.875V0.64L193.665 2.59V6.46ZM215.866 22H232.756V18.07H223.966L229.426 12.91C230.306 12.11 231.016 11.22 231.556 10.24C232.096 9.26 232.366 8.21 232.366 7.09C232.366 6.33 232.206 5.57 231.886 4.81C231.586 4.05 231.116 3.36 230.476 2.74C229.856 2.1 229.066 1.59 228.106 1.21C227.166 0.809999 226.066 0.609998 224.806 0.609998C223.106 0.609998 221.666 0.969998 220.486 1.69C219.326 2.39 218.446 3.34 217.846 4.54C217.246 5.74 216.946 7.09 216.946 8.59H221.146C221.146 7.75 221.286 7.01 221.566 6.37C221.866 5.73 222.276 5.24 222.796 4.9C223.336 4.54 223.976 4.36 224.716 4.36C225.236 4.36 225.696 4.45 226.096 4.63C226.496 4.79 226.836 5.01 227.116 5.29C227.396 5.57 227.606 5.89 227.746 6.25C227.886 6.61 227.956 6.98 227.956 7.36C227.956 7.9 227.856 8.42 227.656 8.92C227.456 9.42 227.166 9.92 226.786 10.42C226.406 10.92 225.946 11.46 225.406 12.04L215.866 22ZM234.733 22H251.623V18.07H242.833L248.293 12.91C249.173 12.11 249.883 11.22 250.423 10.24C250.963 9.26 251.233 8.21 251.233 7.09C251.233 6.33 251.073 5.57 250.753 4.81C250.453 4.05 249.983 3.36 249.343 2.74C248.723 2.1 247.933 1.59 246.973 1.21C246.033 0.809999 244.933 0.609998 243.673 0.609998C241.973 0.609998 240.533 0.969998 239.353 1.69C238.193 2.39 237.313 3.34 236.713 4.54C236.113 5.74 235.813 7.09 235.813 8.59H240.013C240.013 7.75 240.153 7.01 240.433 6.37C240.733 5.73 241.143 5.24 241.663 4.9C242.203 4.54 242.843 4.36 243.583 4.36C244.103 4.36 244.563 4.45 244.963 4.63C245.363 4.79 245.703 5.01 245.983 5.29C246.263 5.57 246.473 5.89 246.613 6.25C246.753 6.61 246.823 6.98 246.823 7.36C246.823 7.9 246.723 8.42 246.523 8.92C246.323 9.42 246.033 9.92 245.653 10.42C245.273 10.92 244.813 11.46 244.273 12.04L234.733 22Z" fill="white"/>
</svg>
