<svg width="129" height="13" viewBox="0 0 129 13" fill="none" xmlns="http://www.w3.org/2000/svg">
<path d="M3.97244 6.4C3.97244 5.87733 4.0791 5.41867 4.29244 5.024C4.51644 4.62933 4.8151 4.32 5.18844 4.096C5.57244 3.872 5.9991 3.76 6.46844 3.76C6.93777 3.76 7.35377 3.85067 7.71644 4.032C8.08977 4.21333 8.39377 4.45333 8.62844 4.752V3.68C8.3511 3.43467 8.04177 3.25333 7.70044 3.136C7.36977 3.008 6.9591 2.944 6.46844 2.944C5.84977 2.944 5.28444 3.09333 4.77244 3.392C4.2711 3.69067 3.86577 4.10133 3.55644 4.624C3.25777 5.136 3.10844 5.728 3.10844 6.4C3.10844 7.06133 3.25777 7.65333 3.55644 8.176C3.86577 8.69867 4.2711 9.10933 4.77244 9.408C5.28444 9.70667 5.84977 9.856 6.46844 9.856C6.9591 9.856 7.36977 9.79733 7.70044 9.68C8.04177 9.552 8.3511 9.36533 8.62844 9.12V8.048C8.39377 8.34667 8.08977 8.58667 7.71644 8.768C7.35377 8.94933 6.93777 9.04 6.46844 9.04C5.9991 9.04 5.57244 8.928 5.18844 8.704C4.8151 8.48 4.51644 8.17067 4.29244 7.776C4.0791 7.38133 3.97244 6.92267 3.97244 6.4ZM1.66844 6.4C1.66844 5.68533 1.7911 5.02933 2.03644 4.432C2.28177 3.824 2.6231 3.296 3.06044 2.848C3.50844 2.4 4.02577 2.05333 4.61244 1.808C5.20977 1.56267 5.8551 1.44 6.54844 1.44C7.24177 1.44 7.88177 1.56267 8.46844 1.808C9.06577 2.05333 9.5831 2.4 10.0204 2.848C10.4684 3.296 10.8151 3.824 11.0604 4.432C11.3058 5.02933 11.4284 5.68533 11.4284 6.4C11.4284 7.11467 11.3058 7.776 11.0604 8.384C10.8151 8.98133 10.4684 9.504 10.0204 9.952C9.5831 10.4 9.06577 10.7467 8.46844 10.992C7.88177 11.2373 7.24177 11.36 6.54844 11.36C5.8551 11.36 5.20977 11.2373 4.61244 10.992C4.02577 10.7467 3.50844 10.4 3.06044 9.952C2.6231 9.504 2.28177 8.98133 2.03644 8.384C1.7911 7.776 1.66844 7.11467 1.66844 6.4ZM0.788438 6.4C0.788438 7.232 0.932438 8 1.22044 8.704C1.5191 9.408 1.92444 10.0213 2.43644 10.544C2.9591 11.056 3.57244 11.456 4.27644 11.744C4.98044 12.0213 5.73777 12.16 6.54844 12.16C7.36977 12.16 8.1271 12.0213 8.82044 11.744C9.52444 11.456 10.1324 11.056 10.6444 10.544C11.1671 10.0213 11.5724 9.408 11.8604 8.704C12.1591 8 12.3084 7.232 12.3084 6.4C12.3084 5.568 12.1591 4.8 11.8604 4.096C11.5724 3.392 11.1671 2.784 10.6444 2.272C10.1324 1.74933 9.52444 1.34933 8.82044 1.072C8.1271 0.783999 7.36977 0.639999 6.54844 0.639999C5.73777 0.639999 4.98044 0.783999 4.27644 1.072C3.57244 1.34933 2.9591 1.74933 2.43644 2.272C1.92444 2.784 1.5191 3.392 1.22044 4.096C0.932438 4.8 0.788438 5.568 0.788438 6.4ZM21.0222 6.48L24.8622 12H26.5422L22.5422 6.48H21.0222ZM19.0222 0.799999V12H20.3822V0.799999H19.0222ZM19.7742 2H22.0622C22.5422 2 22.9635 2.08533 23.3262 2.256C23.6995 2.42667 23.9875 2.672 24.1902 2.992C24.4035 3.312 24.5102 3.70133 24.5102 4.16C24.5102 4.61867 24.4035 5.008 24.1902 5.328C23.9875 5.648 23.6995 5.89333 23.3262 6.064C22.9635 6.23467 22.5422 6.32 22.0622 6.32H19.7742V7.52H22.0622C22.7875 7.52 23.4329 7.38667 23.9982 7.12C24.5742 6.84267 25.0275 6.45333 25.3582 5.952C25.6995 5.44 25.8702 4.84267 25.8702 4.16C25.8702 3.46667 25.6995 2.86933 25.3582 2.368C25.0275 1.86667 24.5742 1.48267 23.9982 1.216C23.4329 0.938666 22.7875 0.799999 22.0622 0.799999H19.7742V2ZM28.7753 6.4C28.7753 5.55733 28.9566 4.80533 29.3193 4.144C29.6926 3.48267 30.1993 2.96 30.8393 2.576C31.4793 2.192 32.2046 2 33.0153 2C33.8366 2 34.562 2.192 35.1913 2.576C35.8313 2.96 36.3326 3.48267 36.6953 4.144C37.0686 4.80533 37.2553 5.55733 37.2553 6.4C37.2553 7.24267 37.0686 7.99467 36.6953 8.656C36.3326 9.31733 35.8313 9.84 35.1913 10.224C34.562 10.608 33.8366 10.8 33.0153 10.8C32.2046 10.8 31.4793 10.608 30.8393 10.224C30.1993 9.84 29.6926 9.31733 29.3193 8.656C28.9566 7.99467 28.7753 7.24267 28.7753 6.4ZM27.3353 6.4C27.3353 7.21067 27.474 7.968 27.7513 8.672C28.0393 9.376 28.4393 9.98933 28.9513 10.512C29.4633 11.024 30.066 11.4293 30.7593 11.728C31.4526 12.016 32.2046 12.16 33.0153 12.16C33.8366 12.16 34.5886 12.016 35.2713 11.728C35.9646 11.4293 36.5673 11.024 37.0793 10.512C37.5913 9.98933 37.986 9.376 38.2633 8.672C38.5513 7.968 38.6953 7.21067 38.6953 6.4C38.6953 5.57867 38.5513 4.82133 38.2633 4.128C37.986 3.424 37.5913 2.816 37.0793 2.304C36.5673 1.78133 35.9646 1.376 35.2713 1.088C34.5886 0.789333 33.8366 0.639999 33.0153 0.639999C32.2046 0.639999 31.4526 0.789333 30.7593 1.088C30.066 1.376 29.4633 1.78133 28.9513 2.304C28.4393 2.816 28.0393 3.424 27.7513 4.128C27.474 4.82133 27.3353 5.57867 27.3353 6.4ZM41.6879 6.08H43.4959C44.1679 6.08 44.7493 5.984 45.2399 5.792C45.7413 5.6 46.1306 5.31733 46.4079 4.944C46.6853 4.57067 46.8239 4.12267 46.8239 3.6C46.8239 2.96 46.6853 2.43733 46.4079 2.032C46.1306 1.616 45.7413 1.30667 45.2399 1.104C44.7493 0.901333 44.1679 0.799999 43.4959 0.799999H40.6159V12H43.6559C44.3813 12 45.0266 11.8827 45.5919 11.648C46.1679 11.4027 46.6213 11.04 46.9519 10.56C47.2933 10.0693 47.4639 9.456 47.4639 8.72C47.4639 8.208 47.3679 7.76533 47.1759 7.392C46.9839 7.01867 46.7119 6.71467 46.3599 6.48C46.0186 6.23467 45.6186 6.05333 45.1599 5.936C44.7013 5.81867 44.1999 5.76 43.6559 5.76H41.6879V6.512H43.6559C44.0186 6.512 44.3493 6.56 44.6479 6.656C44.9466 6.74133 45.2026 6.87467 45.4159 7.056C45.6399 7.23733 45.8106 7.46133 45.9279 7.728C46.0453 7.99467 46.1039 8.29867 46.1039 8.64C46.1039 9.09867 45.9973 9.488 45.7839 9.808C45.5813 10.128 45.2933 10.3733 44.9199 10.544C44.5573 10.7147 44.1359 10.8 43.6559 10.8H41.9759V2H43.4959C44.0613 2 44.5306 2.14933 44.9039 2.448C45.2773 2.736 45.4639 3.14667 45.4639 3.68C45.4639 4.032 45.3786 4.33067 45.2079 4.576C45.0373 4.82133 44.8026 5.008 44.5039 5.136C44.2053 5.264 43.8693 5.328 43.4959 5.328H41.6879V6.08ZM50.3378 6.4C50.3378 5.55733 50.5191 4.80533 50.8818 4.144C51.2551 3.48267 51.7618 2.96 52.4018 2.576C53.0418 2.192 53.7671 2 54.5778 2C55.3991 2 56.1245 2.192 56.7538 2.576C57.3938 2.96 57.8951 3.48267 58.2578 4.144C58.6311 4.80533 58.8178 5.55733 58.8178 6.4C58.8178 7.24267 58.6311 7.99467 58.2578 8.656C57.8951 9.31733 57.3938 9.84 56.7538 10.224C56.1245 10.608 55.3991 10.8 54.5778 10.8C53.7671 10.8 53.0418 10.608 52.4018 10.224C51.7618 9.84 51.2551 9.31733 50.8818 8.656C50.5191 7.99467 50.3378 7.24267 50.3378 6.4ZM48.8978 6.4C48.8978 7.21067 49.0365 7.968 49.3138 8.672C49.6018 9.376 50.0018 9.98933 50.5138 10.512C51.0258 11.024 51.6285 11.4293 52.3218 11.728C53.0151 12.016 53.7671 12.16 54.5778 12.16C55.3991 12.16 56.1511 12.016 56.8338 11.728C57.5271 11.4293 58.1298 11.024 58.6418 10.512C59.1538 9.98933 59.5485 9.376 59.8258 8.672C60.1138 7.968 60.2578 7.21067 60.2578 6.4C60.2578 5.57867 60.1138 4.82133 59.8258 4.128C59.5485 3.424 59.1538 2.816 58.6418 2.304C58.1298 1.78133 57.5271 1.376 56.8338 1.088C56.1511 0.789333 55.3991 0.639999 54.5778 0.639999C53.7671 0.639999 53.0151 0.789333 52.3218 1.088C51.6285 1.376 51.0258 1.78133 50.5138 2.304C50.0018 2.816 49.6018 3.424 49.3138 4.128C49.0365 4.82133 48.8978 5.57867 48.8978 6.4ZM61.9341 11.36C61.9341 11.5947 62.0194 11.8027 62.1901 11.984C62.3714 12.1547 62.5794 12.24 62.8141 12.24C63.0594 12.24 63.2674 12.1547 63.4381 11.984C63.6087 11.8027 63.6941 11.5947 63.6941 11.36C63.6941 11.1147 63.6087 10.9067 63.4381 10.736C63.2674 10.5653 63.0594 10.48 62.8141 10.48C62.5794 10.48 62.3714 10.5653 62.1901 10.736C62.0194 10.9067 61.9341 11.1147 61.9341 11.36ZM66.9069 8.608L65.8189 9.344C66.0643 9.83467 66.3789 10.2987 66.7629 10.736C67.1576 11.1627 67.6109 11.5093 68.1229 11.776C68.6456 12.032 69.2109 12.16 69.8189 12.16C70.2669 12.16 70.6936 12.0853 71.0989 11.936C71.5149 11.7867 71.8829 11.5733 72.2029 11.296C72.5336 11.0187 72.7896 10.6827 72.9709 10.288C73.1629 9.89333 73.2589 9.45067 73.2589 8.96C73.2589 8.448 73.1683 8.01067 72.9869 7.648C72.8056 7.27467 72.5709 6.96 72.2829 6.704C72.0056 6.43733 71.7016 6.21867 71.3709 6.048C71.0403 5.87733 70.7256 5.73867 70.4269 5.632C69.7763 5.408 69.2589 5.184 68.8749 4.96C68.5016 4.72533 68.2349 4.48 68.0749 4.224C67.9149 3.95733 67.8349 3.66933 67.8349 3.36C67.8349 2.99733 67.9736 2.672 68.2509 2.384C68.5283 2.08533 68.9709 1.936 69.5789 1.936C70.0163 1.936 70.3843 2.02133 70.6829 2.192C70.9923 2.36267 71.2536 2.58133 71.4669 2.848C71.6803 3.11467 71.8563 3.38667 71.9949 3.664L73.1629 2.992C72.9816 2.59733 72.7309 2.224 72.4109 1.872C72.0909 1.50933 71.7016 1.216 71.2429 0.992C70.7949 0.757333 70.2669 0.639999 69.6589 0.639999C69.0296 0.639999 68.4696 0.767999 67.9789 1.024C67.4883 1.26933 67.1043 1.61067 66.8269 2.048C66.5496 2.48533 66.4109 2.98133 66.4109 3.536C66.4109 4.048 66.5069 4.48 66.6989 4.832C66.9016 5.184 67.1576 5.48267 67.4669 5.728C67.7763 5.96267 68.1016 6.16 68.4429 6.32C68.7843 6.46933 69.0936 6.592 69.3709 6.688C69.7976 6.83733 70.1976 7.008 70.5709 7.2C70.9549 7.38133 71.2643 7.62133 71.4989 7.92C71.7336 8.21867 71.8509 8.61867 71.8509 9.12C71.8509 9.632 71.6696 10.0533 71.3069 10.384C70.9443 10.7147 70.4643 10.88 69.8669 10.88C69.4189 10.88 69.0189 10.784 68.6669 10.592C68.3149 10.4 67.9949 10.1333 67.7069 9.792C67.4296 9.45067 67.1629 9.056 66.9069 8.608ZM76.0566 6.4C76.0566 5.52533 76.2486 4.76267 76.6326 4.112C77.0272 3.45067 77.5392 2.93333 78.1686 2.56C78.7979 2.18667 79.4806 2 80.2166 2C80.7499 2 81.2352 2.06933 81.6726 2.208C82.1206 2.34667 82.5259 2.544 82.8886 2.8C83.2512 3.04533 83.5606 3.33333 83.8166 3.664V1.872C83.3472 1.456 82.8352 1.14667 82.2806 0.943999C81.7259 0.741333 81.0379 0.639999 80.2166 0.639999C79.4379 0.639999 78.7072 0.783999 78.0246 1.072C77.3526 1.34933 76.7606 1.74933 76.2486 2.272C75.7366 2.784 75.3366 3.392 75.0486 4.096C74.7606 4.8 74.6166 5.568 74.6166 6.4C74.6166 7.232 74.7606 8 75.0486 8.704C75.3366 9.408 75.7366 10.0213 76.2486 10.544C76.7606 11.056 77.3526 11.456 78.0246 11.744C78.7072 12.0213 79.4379 12.16 80.2166 12.16C81.0379 12.16 81.7259 12.0587 82.2806 11.856C82.8352 11.6533 83.3472 11.344 83.8166 10.928V9.136C83.5606 9.46667 83.2512 9.76 82.8886 10.016C82.5259 10.2613 82.1206 10.4533 81.6726 10.592C81.2352 10.7307 80.7499 10.8 80.2166 10.8C79.4806 10.8 78.7979 10.6133 78.1686 10.24C77.5392 9.86667 77.0272 9.34933 76.6326 8.688C76.2486 8.02667 76.0566 7.264 76.0566 6.4ZM86.9617 6.56H94.6417V5.28H86.9617V6.56ZM93.7297 0.799999V12H95.0897V0.799999H93.7297ZM86.2097 0.799999V12H87.5697V0.799999H86.2097ZM98.4472 6.4C98.4472 5.55733 98.6285 4.80533 98.9912 4.144C99.3645 3.48267 99.8712 2.96 100.511 2.576C101.151 2.192 101.877 2 102.687 2C103.509 2 104.234 2.192 104.863 2.576C105.503 2.96 106.005 3.48267 106.367 4.144C106.741 4.80533 106.927 5.55733 106.927 6.4C106.927 7.24267 106.741 7.99467 106.367 8.656C106.005 9.31733 105.503 9.84 104.863 10.224C104.234 10.608 103.509 10.8 102.687 10.8C101.877 10.8 101.151 10.608 100.511 10.224C99.8712 9.84 99.3645 9.31733 98.9912 8.656C98.6285 7.99467 98.4472 7.24267 98.4472 6.4ZM97.0072 6.4C97.0072 7.21067 97.1459 7.968 97.4232 8.672C97.7112 9.376 98.1112 9.98933 98.6232 10.512C99.1352 11.024 99.7379 11.4293 100.431 11.728C101.125 12.016 101.877 12.16 102.687 12.16C103.509 12.16 104.261 12.016 104.943 11.728C105.637 11.4293 106.239 11.024 106.751 10.512C107.263 9.98933 107.658 9.376 107.935 8.672C108.223 7.968 108.367 7.21067 108.367 6.4C108.367 5.57867 108.223 4.82133 107.935 4.128C107.658 3.424 107.263 2.816 106.751 2.304C106.239 1.78133 105.637 1.376 104.943 1.088C104.261 0.789333 103.509 0.639999 102.687 0.639999C101.877 0.639999 101.125 0.789333 100.431 1.088C99.7379 1.376 99.1352 1.78133 98.6232 2.304C98.1112 2.816 97.7112 3.424 97.4232 4.128C97.1459 4.82133 97.0072 5.57867 97.0072 6.4ZM111.088 6.4C111.088 5.55733 111.269 4.80533 111.632 4.144C112.005 3.48267 112.512 2.96 113.152 2.576C113.792 2.192 114.517 2 115.328 2C116.149 2 116.874 2.192 117.504 2.576C118.144 2.96 118.645 3.48267 119.008 4.144C119.381 4.80533 119.568 5.55733 119.568 6.4C119.568 7.24267 119.381 7.99467 119.008 8.656C118.645 9.31733 118.144 9.84 117.504 10.224C116.874 10.608 116.149 10.8 115.328 10.8C114.517 10.8 113.792 10.608 113.152 10.224C112.512 9.84 112.005 9.31733 111.632 8.656C111.269 7.99467 111.088 7.24267 111.088 6.4ZM109.648 6.4C109.648 7.21067 109.786 7.968 110.064 8.672C110.352 9.376 110.752 9.98933 111.264 10.512C111.776 11.024 112.378 11.4293 113.072 11.728C113.765 12.016 114.517 12.16 115.328 12.16C116.149 12.16 116.901 12.016 117.584 11.728C118.277 11.4293 118.88 11.024 119.392 10.512C119.904 9.98933 120.298 9.376 120.576 8.672C120.864 7.968 121.008 7.21067 121.008 6.4C121.008 5.57867 120.864 4.82133 120.576 4.128C120.298 3.424 119.904 2.816 119.392 2.304C118.88 1.78133 118.277 1.376 117.584 1.088C116.901 0.789333 116.149 0.639999 115.328 0.639999C114.517 0.639999 113.765 0.789333 113.072 1.088C112.378 1.376 111.776 1.78133 111.264 2.304C110.752 2.816 110.352 3.424 110.064 4.128C109.786 4.82133 109.648 5.57867 109.648 6.4ZM122.928 0.799999V12H128.688V10.72H124.288V0.799999H122.928Z" fill="white" fill-opacity="0.7"/>
</svg>
